# xmcd CD database file
#
# Track frame offsets:
#	150
#	23169
#	46615
#	64581
#	85283
#	98669
#	112893
#	124749
#	142886
#	155578
#
# Disc length: 2195 seconds
#
# Revision: 0
# Processed by: cddbd v1.5.2PL0 Copyright (c) Steve Scherf et al.
# Submitted via: CDex 1.51
#
DISCID=7208910a
DTITLE=Glittertind - Landkjenning
DYEAR=2009
DGENRE=Jazz
TTITLE0=Landkjenning
TTITLE1=Nordafjells
TTITLE2=Varder I Brann
TTITLE3=Går Min Eigen Veg
TTITLE4=Longships and Mead
TTITLE5=Glittertind
TTITLE6=Jeg Snører Min Sekk
TTITLE7=Mot Myrke Vetteren
TTITLE8=Brede Seil Over Nordsjø Går
TTITLE9=Overmåte Full Av Nåde
EXTD=YEAR: 2009
EXTT0=
EXTT1=
EXTT2=
EXTT3=
EXTT4=
EXTT5=
EXTT6=
EXTT7=
EXTT8=
EXTT9=
PLAYORDER=
